<svg id="Capa_1" data-name="Capa 1" xmlns="http://www.w3.org/2000/svg" viewBox="0 0 24 24"><defs><style>.cls-1{fill:#2e3332;}</style></defs><title>ajustesBlack</title><path class="cls-1" d="M181.29,12.76l-1.7-.57a9.94,9.94,0,0,0-.83-2l.8-1.59a1,1,0,0,0-.19-1.2l-.89-.89-.89-.89a1,1,0,0,0-1.2-.19l-1.59.8a9.94,9.94,0,0,0-2-.83l-.57-1.7a1,1,0,0,0-1-.71h-2.51a1,1,0,0,0-1,.71l-.57,1.7a9.94,9.94,0,0,0-2,.83l-1.59-.8a1,1,0,0,0-1.2.19l-.89.89-.89.89a1,1,0,0,0-.19,1.2l.8,1.59a9.94,9.94,0,0,0-.83,2l-1.7.57a1,1,0,0,0-.71,1v2.51a1,1,0,0,0,.71,1l1.7.57a9.94,9.94,0,0,0,.83,2l-.8,1.59a1,1,0,0,0,.19,1.2l.89.89.89.89a1,1,0,0,0,1.2.19l1.59-.8a9.94,9.94,0,0,0,2,.83l.57,1.7a1,1,0,0,0,1,.71h2.51a1,1,0,0,0,1-.71l.57-1.7a9.94,9.94,0,0,0,2-.83l1.59.8a1,1,0,0,0,1.2-.19l.89-.89.89-.89a1,1,0,0,0,.19-1.2l-.8-1.59a9.94,9.94,0,0,0,.83-2l1.7-.57a1,1,0,0,0,.71-1V13.75A1,1,0,0,0,181.29,12.76ZM170,20.5a5.5,5.5,0,1,1,5.5-5.5A5.5,5.5,0,0,1,170,20.5Z" transform="translate(-158 -3)"/></svg>