<?xml version="1.0" encoding="utf-8"?>
<!-- Generator: Adobe Illustrator 23.0.2, SVG Export Plug-In . SVG Version: 6.00 Build 0)  -->
<svg version="1.1" id="Capa_1" xmlns="http://www.w3.org/2000/svg" xmlns:xlink="http://www.w3.org/1999/xlink" x="0px" y="0px"
	 viewBox="0 0 20 20" style="enable-background:new 0 0 20 20;" xml:space="preserve">
<style type="text/css">
	.st0{fill:#31D9A6;}
</style>
<g>
	<path class="st0" d="M0.1,12.6c0.1-0.3,0.3-0.3,0.6-0.3c1.5,0,3,0,4.6,0c0.6,0,1-0.2,1.5-0.5c0.6-0.5,1.2-1,1.6-1.6
		c0.8-1,1.7-2,2.5-3c0.6-0.7,1.4-1.3,2.2-1.7c0.4-0.2,0.9-0.3,1.4-0.3c0.4,0,0.8,0,1.3,0c0-0.2,0-0.4,0-0.6c0-0.4,0.3-0.6,0.6-0.4
		c1.1,0.6,2.1,1.3,3.2,1.9c0.4,0.2,0.4,0.6,0,0.7c-1.1,0.6-2.1,1.3-3.2,1.9c-0.4,0.2-0.6,0-0.6-0.4c0-0.2,0-0.4,0-0.6
		c-0.5,0-1-0.1-1.6,0c-0.4,0.1-0.7,0.3-1,0.6c-0.7,0.6-1.3,1.3-1.8,2c-0.7,0.9-1.5,1.9-2.3,2.7c-0.6,0.6-1.3,1.2-2.1,1.5
		c-0.5,0.2-1,0.3-1.6,0.3c-1.6,0-3.1,0-4.7,0c-0.3,0-0.4-0.1-0.5-0.3C0.1,13.8,0.1,13.2,0.1,12.6z"/>
	<path class="st0" d="M0.1,5.5c0.1-0.3,0.3-0.3,0.5-0.3c1.5,0,3,0,4.5,0c1.3,0,2.3,0.4,3.2,1.2c0.4,0.3,0.8,0.7,1.2,1
		C9,8,8.4,8.6,7.9,9.2C7.8,9.1,7.6,8.9,7.5,8.7C7,8.3,6.6,7.9,5.9,7.7C5.7,7.7,5.5,7.6,5.3,7.6c-1.6,0-3.1,0-4.7,0
		c-0.3,0-0.4-0.1-0.5-0.3C0.1,6.7,0.1,6.1,0.1,5.5z"/>
	<path class="st0" d="M15.8,14.7c-1.1,0-2.2,0.1-3.2-0.5c-0.8-0.5-1.4-1-2-1.7c0.5-0.6,1-1.2,1.6-1.8c0.2,0.2,0.3,0.3,0.4,0.5
		c0.4,0.4,0.8,0.8,1.4,1.1c0.1,0,0.1,0.1,0.2,0.1c0.5,0,1,0,1.6,0c0-0.2,0-0.4,0-0.6c0-0.4,0.3-0.6,0.6-0.4c1.1,0.6,2.2,1.3,3.2,1.9
		c0.3,0.2,0.3,0.5,0,0.7c-1.1,0.6-2.1,1.3-3.2,1.9c-0.3,0.2-0.6,0-0.6-0.4C15.8,15.2,15.8,15,15.8,14.7z"/>
</g>
</svg>
