<?xml version="1.0" encoding="utf-8"?>
<!-- Generator: Adobe Illustrator 23.0.2, SVG Export Plug-In . SVG Version: 6.00 Build 0)  -->
<svg version="1.1" id="Capa_1" xmlns="http://www.w3.org/2000/svg" xmlns:xlink="http://www.w3.org/1999/xlink" x="0px" y="0px"
	 viewBox="0 0 20 20" style="enable-background:new 0 0 20 20;" xml:space="preserve">
<style type="text/css">
	.st0{fill:#31D9A6;}
</style>
<g>
	<path class="st0" d="M19.7,9.9v0.3c0,2.3-1.9,4.3-4.3,4.3h-3.4c0,0,0.8-0.5,0.6-1.7h2.8c1.4,0,2.6-1.2,2.6-2.6V9.9
		c0-1.4-1.2-2.6-2.6-2.6h-3.8l0,0h-1l0.6,1.5c0,0.1,0,0.1,0,0.1c0,0-0.1,0-0.2,0L8,6.6c0,0,0-0.1,0-0.1c0,0,0-0.1,0-0.1L11,4
		c0,0,0,0,0.1,0c0,0,0.1,0,0.1,0c0,0,0.1,0.1,0,0.1l-0.6,1.5h1l0,0h3.8C17.8,5.6,19.7,7.6,19.7,9.9z M9,11.1c0,0-0.1,0-0.2,0
		c0,0-0.1,0.1,0,0.1l0.6,1.5h-1l0,0H4.5c-1.4,0-2.6-1.2-2.6-2.6V9.8c0-1.4,1.2-2.6,2.6-2.6h2.8C7.1,6.1,7.9,5.6,7.9,5.6H4.5
		c-2.3,0-4.3,1.9-4.3,4.3v0.3c0,2.3,1.9,4.3,4.3,4.3h3.8l0,0h1l-0.6,1.5c0,0.1,0,0.1,0,0.1c0,0,0,0,0.1,0s0.1,0,0.1,0l3.1-2.4
		c0,0,0-0.1,0-0.1c0,0,0-0.1,0-0.1L9,11.1z"/>
</g>
</svg>
