<svg id="Capa_1" data-name="Capa 1" xmlns="http://www.w3.org/2000/svg" viewBox="0 0 29.6 29.24"><defs><style>.cls-1{fill:none;stroke:#f2f2f2;stroke-linecap:round;stroke-linejoin:round;stroke-width:1.5px;}</style></defs><title>homeWhite</title><path class="cls-1" d="M23.76,28.87V16.29a.62.62,0,0,1,.64-.6h4a.6.6,0,0,0,.46-1L15.46,1.32a.67.67,0,0,0-.93,0L1.13,14.68a.6.6,0,0,0,.46,1h4a.62.62,0,0,1,.64.6V28.87" transform="translate(-0.2 -0.38)"/><path class="cls-1" d="M11.49,28.1V20.65a2.64,2.64,0,0,1,2.78-2.46h1.46a2.64,2.64,0,0,1,2.78,2.46V28.1" transform="translate(-0.2 -0.38)"/></svg>