<?xml version="1.0" encoding="utf-8"?>
<!-- Generator: Adobe Illustrator 23.0.2, SVG Export Plug-In . SVG Version: 6.00 Build 0)  -->
<svg version="1.1" id="Capa_1" xmlns="http://www.w3.org/2000/svg" xmlns:xlink="http://www.w3.org/1999/xlink" x="0px" y="0px"
	 viewBox="0 0 40 40" style="enable-background:new 0 0 40 40;" xml:space="preserve">
<style type="text/css">
	.st0{fill:#31D9A6;}
</style>
<g>
	<g>
		<path class="st0" d="M6.7,26.8h1.9l3.1-3.1H8.2v-8.2h6.4c0.4,0,0.8-0.2,1.1-0.5L23,7.7v4.7l3.1-3.1V3.9c0-0.6-0.4-1.2-1-1.4
			c-0.6-0.2-1.3-0.1-1.7,0.3L14,12.3H6.7c-0.9,0-1.6,0.7-1.6,1.6v11.3C5.1,26.1,5.8,26.8,6.7,26.8z"/>
		<path class="st0" d="M23,31.4l-4.8-4.9l-2.2,2.2l7.5,7.5c0.3,0.3,0.7,0.5,1.1,0.5c0.2,0,0.4,0,0.6-0.1c0.6-0.2,1-0.8,1-1.4V18.6
			L23,21.7L23,31.4L23,31.4z"/>
		<path class="st0" d="M38.5,1.5C38.2,1.2,37.7,1,37.3,1s-0.9,0.2-1.2,0.5l-10,10L23,14.6l-9,9l-3.1,3.1l-9.3,9.3
			c-0.7,0.7-0.7,1.8,0,2.4C1.8,38.8,2.3,39,2.7,39c0.4,0,0.9-0.2,1.2-0.5l10.8-10.8l2.2-2.2l5.9-6l3.1-3.1L38.5,3.9
			C39.2,3.3,39.2,2.2,38.5,1.5z"/>
	</g>
</g>
</svg>
