<?xml version="1.0" encoding="utf-8"?>
<!-- Generator: Adobe Illustrator 23.0.2, SVG Export Plug-In . SVG Version: 6.00 Build 0)  -->
<svg version="1.1" id="Capa_1" xmlns="http://www.w3.org/2000/svg" xmlns:xlink="http://www.w3.org/1999/xlink" x="0px" y="0px"
	 viewBox="0 0 40 40" style="enable-background:new 0 0 40 40;" xml:space="preserve">
<style type="text/css">
	.st0{fill:#31D9A6;}
	.st1{fill:none;stroke:#31D9A6;stroke-width:2;stroke-linecap:round;stroke-miterlimit:10;}
</style>
<g>
	<g>
		<path class="st0" d="M6.9,20v-4h6.4c0.4,0,0.8-0.2,1.1-0.5l7.2-7.3v11.9l3.1,0V4.5c0-0.6-0.4-1.2-1-1.4c-0.6-0.2-1.3-0.1-1.7,0.3
			l-9.5,9.5H5.4c-0.9,0-1.6,0.7-1.6,1.6c0,0,0,5.5,0,5.5v5.5c0,0.9,0.7,1.6,1.6,1.6h7.3l9.5,9.5c0.5,0.5,1.1,0.6,1.7,0.3
			c0.6-0.2,1-0.8,1-1.4V20h-3.1v11.7l-7.2-7.3c-0.3-0.3-0.7-0.5-1.1-0.5H6.9V20"/>
	</g>
</g>
<line class="st1" x1="27.3" y1="16.8" x2="27.3" y2="23.2"/>
<line class="st1" x1="31.2" y1="13.7" x2="31.2" y2="26.3"/>
<line class="st1" x1="35.1" y1="7" x2="35.1" y2="33"/>
</svg>
